<svg viewBox="0 0 64 64" xml:space="preserve" xmlns="http://www.w3.org/2000/svg" enable-background="new 0 0 64 64"><g id="Layer_2"><path d="M20.8 43.4h-6.4C8.1 43.4 3 38.3 3 32v0c0-6.3 5.1-11.4 11.4-11.4h10.1M41.6 20.6h8C55.9 20.6 61 25.7 61 32v0c0 6.3-5.1 11.4-11.4 11.4H33.7M24.6 32h14.8" fill="none" stroke="#bb99dd" stroke-width="2" stroke-linecap="round" stroke-linejoin="round" stroke-miterlimit="10" class="stroke-000000"></path><path d="M43.1 24.4h5.3c4.2 0 7.6 3.4 7.6 7.6v0c0 2.6-1.3 4.8-3.2 6.2M18 38.9h-3.9c-3.8 0-6.9-3.1-6.9-6.9v0c0-.9.2-1.7.5-2.5" fill="none" stroke="#bb99dd" stroke-width="2" stroke-linecap="round" stroke-linejoin="round" stroke-miterlimit="10" class="stroke-000000"></path></g></svg>